<?xml version="1.0" encoding="utf-8"?>
<svg xmlns="http://www.w3.org/2000/svg" viewBox="0 0 512 512" xmlns:bx="https://boxy-svg.com">
  <defs>
    <linearGradient id="sky" x1="0" y1="0" x2="0" y2="1">
      <stop offset="0" stop-color="#1d69a6"/>
      <stop offset="1" stop-color="#8fc9df"/>
    </linearGradient>
    <linearGradient id="hill" x1="0" y1="0" x2="1" y2="1">
      <stop stop-color="#7fa444"/>
      <stop offset="1" stop-color="#294e32"/>
    </linearGradient>
    <clipPath id="iconClip">
      <rect x="16" y="16" width="480" height="480"/>
    </clipPath>
  </defs>
  <path fill="url(#sky)" d="M 16.514 16 H 495.486 L 496 16.514 V 495.486 L 495.486 496 H 16.514 L 16 495.486 V 16.514 L 16.514 16 Z" bx:shape="rect 16 16 480 480 1 0.514 0.514 1 0.514 0.514 1 0.514 0.514 1 0.514 0.514 2@c875a13d"/>
  <g clip-path="url(#iconClip)">
    <circle cx="374" cy="130" r="54" fill="#ffd45b"/>
    <path d="M30 385 151 239l58 67 72-120 201 211v99H30Z" fill="#718695"/>
    <path d="m151 239 58 67 23-38 49-82 52 55-32-13-20 25-21-18-40 79-31 23Z" fill="#eef5f4"/>
    <path d="M 16 390.034 C 103.937 312.108 171.473 329.882 243.287 381.144 C 306.801 309.485 389.943 295.462 496 389.38 L 496 496 L 16 496 Z" fill="url(#hill)"/>
    <path d="M126 221c5-30 30-52 61-52 13 0 25 4 35 11 10-43 48-75 94-75 52 0 94 40 97 91 28 3 50 26 50 55H119c0-11 2-21 7-30Z" fill="#e5eef2" opacity=".52"/>
    <path d="M81 245c7-34 37-59 73-59 18 0 35 7 48 18 13-28 41-47 74-47 44 0 80 35 82 79 23 2 42 21 44 45H75c0-14 2-26 6-36Z" fill="#f4f8f8" opacity=".74"/>
  </g>
</svg>
